<?xml version="1.0" standalone="no"?>
<!DOCTYPE svg PUBLIC "-//W3C//DTD SVG 20010904//EN"
 "http://www.w3.org/TR/2001/REC-SVG-20010904/DTD/svg10.dtd">
<svg version="1.0" xmlns="http://www.w3.org/2000/svg"
 width="500.000000pt" height="500.000000pt" viewBox="0 0 500.000000 500.000000"
 preserveAspectRatio="xMidYMid meet">
<g transform="translate(0.000000,500.000000) scale(0.100000,-0.100000)"
fill="#000000" stroke="none">
<path d="M2483 3893 c-4 -10 -8 -116 -8 -235 0 -160 3 -220 13 -229 9 -10 15
-10 25 -1 15 16 22 289 10 401 -8 74 -25 102 -40 64z m18 -284 c0 -56 -3 -104
-6 -107 -2 -3 -4 46 -4 107 0 62 3 111 5 108 3 -3 5 -51 5 -108z"/>
<path d="M2812 3583 c-46 -116 -65 -181 -58 -198 16 -42 43 -1 90 135 41 117
44 140 17 140 -14 0 -26 -19 -49 -77z m31 -5 c-3 -16 -9 -28 -14 -28 -4 0 -3
14 3 31 12 36 18 35 11 -3z m-13 -63 c0 -8 -2 -15 -4 -15 -2 0 -6 7 -10 15 -3
8 -1 15 4 15 6 0 10 -7 10 -15z m-28 -54 c-5 -3 -12 -13 -15 -21 -4 -12 -6
-12 -6 2 -1 9 4 20 9 23 6 3 11 16 11 28 2 21 2 20 6 -2 3 -13 1 -26 -5 -30z"/>
<path d="M2120 3643 c0 -23 55 -203 71 -235 20 -38 45 -50 55 -25 5 15 -49
193 -72 240 -13 24 -54 39 -54 20z m69 -133 c0 -10 -3 -8 -9 5 -12 27 -12 43
0 25 5 -8 9 -22 9 -30z m13 -52 c-9 -9 -12 -7 -12 12 0 19 3 21 12 12 9 -9 9
-15 0 -24z m16 -35 c0 -21 -2 -23 -10 -9 -5 9 -6 21 -3 26 10 16 13 12 13 -17z"/>
<path d="M1836 3471 c-10 -16 5 -43 78 -139 64 -83 105 -116 123 -99 12 12
-106 181 -160 230 -22 19 -33 21 -41 8z m93 -100 c17 -21 31 -42 31 -47 0 -4
-11 7 -24 25 -13 18 -33 39 -43 46 -10 8 -13 15 -6 15 6 0 25 -18 42 -39z m65
-87 c9 -23 4 -24 -16 -2 -14 14 -15 18 -4 18 8 0 17 -7 20 -16z"/>
<path d="M3140 3472 c-19 -7 -47 -38 -116 -135 -58 -80 -69 -106 -46 -114 18
-7 85 66 139 149 43 69 53 110 23 100z"/>
<path d="M1470 3295 c0 -29 351 -285 392 -285 23 0 23 11 -1 42 -21 27 -361
258 -379 258 -7 0 -12 -7 -12 -15z m165 -103 c11 -6 15 -12 8 -12 -7 0 -22 10
-35 23 -13 12 -17 17 -8 11 8 -6 24 -16 35 -22z m56 -49 c13 -16 12 -17 -3 -4
-17 13 -22 21 -14 21 2 0 10 -8 17 -17z m71 -42 c9 -10 24 -24 34 -29 11 -6
16 -13 13 -16 -2 -3 -22 10 -44 29 -21 19 -34 35 -29 35 5 0 17 -9 26 -19z"/>
<path d="M3421 3253 c-74 -49 -82 -57 -67 -68 15 -11 15 -13 1 -19 -9 -3 -13
-2 -10 3 28 46 -146 -52 -205 -114 -39 -41 0 -61 51 -27 65 42 304 217 321
234 21 21 24 48 6 48 -7 0 -51 -26 -97 -57z m14 -22 c3 -5 2 -12 -3 -15 -5 -3
-9 1 -9 9 0 17 3 19 12 6z m-207 -149 c-17 -15 -35 -27 -39 -27 -4 0 -11 -3
-15 -7 -4 -5 -12 -8 -18 -8 -6 0 1 8 14 17 14 10 28 17 32 16 4 -2 15 8 25 21
10 13 21 22 26 19 4 -2 -7 -16 -25 -31z"/>
<path d="M2350 3267 c-88 -30 -157 -76 -229 -153 -96 -102 -148 -208 -191
-384 -31 -126 -34 -345 -6 -465 61 -266 167 -438 311 -510 49 -24 73 -29 132
-30 66 0 74 2 102 29 38 36 66 95 86 180 33 145 12 288 -80 535 -113 304 -119
440 -30 684 31 86 32 96 19 116 -19 26 -33 26 -114 -2z m69 -19 c11 -10 13
-10 7 0 -4 6 -2 12 3 12 6 0 11 -7 11 -15 0 -8 -3 -15 -8 -15 -10 0 -70 -164
-81 -222 -5 -27 -5 -48 0 -48 4 0 10 10 12 23 3 14 4 11 4 -9 -1 -22 -5 -30
-14 -27 -9 4 -14 -5 -15 -26 -1 -17 -3 -46 -4 -63 -7 -101 61 -378 89 -361 5
3 8 2 4 -3 -3 -5 12 -60 34 -123 21 -62 39 -122 39 -132 0 -10 5 -19 11 -19 5
0 8 -3 6 -7 -3 -5 -2 -65 2 -135 3 -69 3 -124 -1 -122 -7 5 -20 -28 -16 -42 1
-5 -6 -27 -16 -49 -9 -22 -18 -48 -19 -57 -1 -9 -4 -16 -7 -15 -3 1 -15 -4
-28 -11 -12 -7 -46 -12 -75 -11 -29 1 -61 -2 -72 -6 -19 -6 -19 -6 -1 5 17 11
15 14 -20 30 -22 10 -54 30 -71 45 -67 57 -153 188 -182 278 -7 20 -16 37 -21
37 -4 0 -6 10 -2 22 3 13 1 19 -5 15 -7 -5 -9 1 -5 15 3 15 2 19 -7 14 -9 -6
-10 0 -6 21 5 21 4 24 -4 13 -7 -9 -11 -10 -11 -3 0 6 4 14 9 17 5 3 4 25 -1
51 -10 45 -6 310 6 370 3 17 12 50 21 74 11 33 12 47 4 58 -9 11 -8 12 5 7 10
-4 16 -1 16 9 0 19 49 112 89 171 34 50 41 74 11 37 -23 -26 -27 -16 -5 13 7
10 17 16 22 13 12 -7 48 21 38 30 -4 5 -10 2 -12 -4 -3 -7 -9 -13 -15 -13 -6
0 -3 9 7 20 12 14 21 17 25 9 5 -7 26 4 61 30 30 23 57 41 62 41 4 0 7 5 7 11
0 6 -9 8 -22 4 -21 -5 -21 -5 2 9 27 17 55 22 30 6 -13 -8 -13 -10 1 -10 9 0
31 5 50 11 41 14 66 34 29 24 -19 -5 -21 -4 -10 4 19 14 23 14 39 -1z m-219
-103 c-7 -9 -15 -13 -19 -10 -3 3 1 10 9 15 21 14 24 12 10 -5z m177 -117 c-3
-8 -6 -5 -6 6 -1 11 2 17 5 13 3 -3 4 -12 1 -19z m-306 -36 c-5 -10 -18 -25
-27 -33 -11 -9 -9 -2 6 19 26 35 36 42 21 14z m289 -112 c0 -5 -5 -10 -11 -10
-5 0 -7 5 -4 10 3 6 8 10 11 10 2 0 4 -4 4 -10z m-389 -113 c-10 -9 -11 -8 -5
6 3 10 9 15 12 12 3 -3 0 -11 -7 -18z m399 -17 c0 -11 -2 -20 -4 -20 -2 0 -6
9 -9 20 -3 11 -1 20 4 20 5 0 9 -9 9 -20z m37 -162 c10 -12 10 -15 -1 -15 -9
0 -19 18 -25 43 -15 57 -12 80 2 28 7 -23 18 -48 24 -56z m-470 20 c-3 -7 -5
-2 -5 12 0 14 2 19 5 13 2 -7 2 -19 0 -25z m493 -63 c0 -12 -19 -12 -23 0 -4
9 -1 12 9 8 7 -3 14 -7 14 -8z m70 -220 c0 -5 -5 -3 -10 5 -5 8 -10 20 -10 25
0 6 5 3 10 -5 5 -8 10 -19 10 -25z m10 -35 c6 -11 8 -20 6 -20 -3 0 -10 9 -16
20 -6 11 -8 20 -6 20 3 0 10 -9 16 -20z m14 -45 c3 -8 1 -15 -4 -15 -6 0 -10
7 -10 15 0 8 2 15 4 15 2 0 6 -7 10 -15z m19 -212 c-7 -19 -9 -11 -9 34 -1 52
0 54 8 25 5 -19 5 -45 1 -59z m-508 -1 c1 -13 28 -57 39 -64 6 -4 11 -11 11
-15 0 -4 13 -25 29 -46 16 -21 26 -40 22 -44 -3 -3 -6 -2 -6 3 0 14 -51 69
-62 66 -5 -1 -7 2 -4 7 4 5 -4 27 -16 47 -22 37 -34 73 -20 59 4 -4 7 -10 7
-13z m155 -204 c0 -12 -6 -9 -26 13 -19 22 -19 22 4 8 12 -8 22 -17 22 -21z
m320 28 c0 -2 -8 -10 -17 -17 -16 -13 -17 -12 -4 4 13 16 21 21 21 13z m-256
-62 c16 -6 12 -24 -5 -24 -6 0 -7 5 -3 12 5 8 2 9 -10 5 -10 -4 -15 -3 -11 3
7 12 8 12 29 4z m101 -44 c13 -6 15 -9 5 -9 -8 0 -22 4 -30 9 -18 12 -2 12 25
0z"/>
<path d="M2203 3073 c-33 -32 -72 -82 -87 -110 -37 -73 -67 -153 -58 -153 4 0
15 22 24 48 31 86 131 221 194 259 15 9 16 12 4 12 -9 1 -43 -25 -77 -56z"/>
<path d="M2143 2925 c0 -8 4 -12 9 -9 5 3 6 10 3 15 -9 13 -12 11 -12 -6z"/>
<path d="M2125 2889 c-4 -6 -5 -12 -2 -15 2 -3 7 2 10 11 7 17 1 20 -8 4z"/>
<path d="M2070 2682 c-8 -9 -13 -30 -13 -49 1 -21 -3 -31 -10 -26 -6 4 -7 1
-2 -6 4 -7 9 -65 10 -129 2 -65 4 -124 4 -134 1 -21 48 -37 97 -32 42 5 118
36 129 54 3 6 12 7 18 4 7 -4 9 -3 4 1 -4 5 -1 15 7 24 17 19 36 85 36 124 0
15 -7 44 -17 65 -9 20 -17 45 -18 55 -2 9 -3 19 -4 22 0 3 -11 1 -23 -6 -18
-10 -20 -9 -15 5 4 10 3 15 -3 11 -5 -3 -23 1 -40 10 -42 22 -142 26 -160 7z
m170 -34 c114 -58 119 -227 8 -292 -35 -20 -58 -26 -106 -26 l-61 0 -3 163
c-2 89 -2 165 0 170 7 17 118 7 162 -15z m67 -13 c0 -8 -4 -12 -9 -9 -5 3 -6
10 -3 15 9 13 12 11 12 -6z"/>
<path d="M2130 2499 l0 -122 36 6 c50 8 83 33 101 74 20 49 10 96 -28 127 -17
14 -36 26 -42 27 -7 0 -24 3 -39 5 l-28 5 0 -122z m79 69 c-10 -7 -8 -8 8 -3
16 4 25 0 33 -16 10 -17 9 -20 -2 -13 -10 6 -11 5 -1 -7 27 -33 -5 -108 -45
-109 -7 0 -10 -4 -7 -10 4 -6 -2 -7 -17 -1 -21 8 -23 15 -26 94 -2 75 -1 86
15 89 10 3 26 0 37 -5 15 -7 16 -11 5 -19z"/>
<path d="M1990 2388 c0 -27 33 -168 55 -233 33 -99 73 -173 122 -226 42 -46
101 -85 111 -74 4 4 -2 12 -12 19 -51 29 -117 102 -144 159 -54 113 -82 186
-102 268 -16 69 -30 109 -30 87z"/>
<path d="M2420 2306 c0 -15 32 -151 40 -171 l9 -20 0 20 c1 33 -28 158 -39
169 -5 5 -10 6 -10 2z"/>
<path d="M2125 2098 c14 -45 137 -189 150 -176 3 3 -17 29 -44 57 -28 29 -63
72 -77 97 -28 48 -39 56 -29 22z"/>
<path d="M2431 2054 c0 -11 3 -14 6 -6 3 7 2 16 -1 19 -3 4 -6 -2 -5 -13z"/>
<path d="M2456 2002 c-3 -31 -9 -73 -12 -92 -4 -26 -2 -31 5 -19 13 20 30 158
21 164 -4 3 -10 -21 -14 -53z"/>
<path d="M2565 3266 c-77 -47 -115 -164 -115 -355 0 -122 14 -189 66 -306 64
-146 91 -236 104 -350 15 -139 4 -230 -46 -387 -21 -65 -34 -123 -30 -133 5
-14 15 -17 55 -13 93 9 234 98 319 201 132 162 206 430 176 646 -17 125 -41
248 -60 306 -68 208 -242 393 -387 411 -33 4 -50 0 -82 -20z m149 -27 c8 -9 8
-10 -2 -5 -14 8 -62 16 -62 10 0 -2 16 -10 35 -18 19 -8 40 -20 47 -26 7 -6
31 -23 54 -39 57 -40 104 -101 157 -201 62 -120 78 -182 102 -390 3 -30 12
-61 18 -69 9 -12 9 -13 0 -7 -10 5 -13 -8 -13 -58 0 -134 -45 -288 -121 -414
-21 -34 -37 -68 -35 -75 1 -7 1 -8 -2 -4 -5 11 -92 -73 -92 -88 0 -5 7 -1 15
9 8 11 15 15 15 9 0 -5 -10 -18 -22 -29 -12 -10 -18 -13 -14 -6 4 6 3 12 -2
12 -16 0 -112 -56 -106 -63 3 -3 -3 -3 -13 -1 -11 3 -35 -1 -54 -9 -34 -14
-34 -14 -34 14 0 15 3 25 7 23 10 -6 20 34 12 47 -4 7 -3 9 3 6 5 -3 15 9 21
28 7 26 7 35 -1 35 -7 0 -7 4 2 9 37 23 53 282 25 401 -17 75 -55 190 -61 190
-3 0 -2 -7 1 -16 3 -9 2 -12 -5 -9 -6 4 -8 14 -5 22 4 8 -10 55 -29 104 -52
130 -68 214 -62 334 7 117 14 160 33 197 8 16 11 28 8 28 -4 0 5 11 19 24 14
13 23 26 21 29 -3 3 11 4 30 2 20 -2 38 1 42 6 7 12 54 4 68 -12z m51 -29 c-3
-5 0 -10 8 -10 7 0 24 -11 37 -25 13 -14 18 -25 11 -25 -6 0 -14 7 -17 15 -4
8 -10 12 -15 9 -5 -3 -9 -1 -9 4 0 5 -10 12 -22 16 -19 5 -21 8 -8 16 19 12
23 12 15 0z m139 -137 c20 -27 37 -52 37 -58 0 -5 8 -18 16 -28 9 -9 14 -19
11 -22 -7 -7 -29 20 -32 39 -1 9 -13 30 -27 48 -43 58 -50 68 -46 68 3 0 21
-21 41 -47z m-417 -10 c-3 -10 -5 -2 -5 17 0 19 2 27 5 18 2 -10 2 -26 0 -35z
m513 -163 c0 -5 -2 -10 -4 -10 -3 0 -8 5 -11 10 -3 6 -1 10 4 10 6 0 11 -4 11
-10z m38 -130 c0 -8 -6 1 -13 20 -7 19 -13 42 -13 50 0 8 6 -1 13 -20 7 -19
13 -42 13 -50z m-519 -72 c6 -18 7 -28 2 -23 -10 12 -25 55 -18 55 3 0 10 -15
16 -32z m545 -58 c-6 -6 -10 -3 -10 10 0 13 4 16 10 10 7 -7 7 -13 0 -20z
m-528 2 c-3 -3 0 -12 6 -21 10 -13 10 -14 -2 -4 -16 15 -23 46 -8 37 5 -3 7
-9 4 -12z m553 -141 c1 -70 -6 -44 -12 44 -4 59 -3 69 3 40 5 -22 9 -60 9 -84z
m-475 -67 c3 -8 2 -12 -4 -9 -6 3 -10 10 -10 16 0 14 7 11 14 -7z m33 -136
c-3 -8 -6 -5 -6 6 -1 11 2 17 5 13 3 -3 4 -12 1 -19z m415 -6 c-7 -2 -9 -9 -6
-14 4 -7 2 -8 -4 -4 -6 4 -9 13 -6 21 4 8 11 12 17 8 8 -5 7 -8 -1 -11z m-35
-124 c-3 -7 -5 -2 -5 12 0 14 2 19 5 13 2 -7 2 -19 0 -25z m-31 -73 c-9 -14
-14 -25 -11 -25 4 0 -1 -7 -9 -16 -9 -8 -13 -20 -10 -26 4 -7 2 -8 -4 -4 -7 4
-12 2 -12 -5 0 -7 -3 -10 -6 -7 -5 6 54 108 63 108 3 0 -2 -11 -11 -25z m-56
-103 c0 -4 -10 -13 -22 -21 -23 -14 -23 -14 -4 8 20 22 26 25 26 13z m-70 -96
c0 -2 -7 -7 -16 -10 -8 -3 -12 -2 -9 4 6 10 25 14 25 6z m-90 -75 c0 -5 -7
-12 -16 -15 -14 -5 -15 -4 -4 9 14 17 20 19 20 6z m-50 -27 c0 -8 -19 -13 -24
-6 -3 5 1 9 9 9 8 0 15 -2 15 -3z m-120 -43 c0 -13 -25 -20 -40 -11 -10 6 -8
9 6 13 31 8 34 7 34 -2z"/>
<path d="M2660 3166 c0 -2 22 -18 49 -34 59 -37 114 -92 135 -136 15 -31 46
-66 46 -52 0 16 -43 89 -73 122 -44 51 -157 123 -157 100z"/>
<path d="M2550 3081 c-26 -98 -5 -351 30 -351 5 0 5 13 -1 32 -26 91 -30 153
-19 251 12 106 8 134 -10 68z"/>
<path d="M2891 2913 c-1 -16 40 -126 52 -138 15 -16 -1 44 -28 100 -13 28 -24
45 -24 38z"/>
<path d="M2830 2703 c-39 -12 -90 -37 -90 -44 0 -4 -8 -10 -18 -13 -29 -9 -65
-96 -60 -142 7 -62 11 -71 50 -114 9 -10 13 -22 10 -26 -4 -4 -1 -4 6 0 6 4
12 2 12 -4 0 -22 72 -42 125 -36 27 4 55 7 62 8 7 1 11 6 10 12 -1 6 3 10 9 9
7 -1 11 14 10 40 -1 38 -3 42 -28 43 -15 1 -25 -2 -23 -6 7 -12 -44 -22 -76
-15 -17 4 -26 11 -23 17 4 6 2 8 -3 5 -6 -4 -20 11 -31 34 -18 36 -19 44 -7
63 8 11 14 26 13 31 -1 6 13 18 29 28 27 15 37 16 82 5 59 -13 73 -4 69 42 -4
35 -86 76 -128 63z m89 -40 c34 -20 39 -34 17 -52 -11 -10 -21 -9 -45 3 -39
21 -59 20 -97 -3 -65 -40 -69 -137 -8 -190 38 -34 77 -40 111 -16 24 17 53 10
53 -11 0 -22 -61 -54 -103 -54 -139 0 -217 175 -125 281 50 58 137 76 197 42z"/>
<path d="M2590 2685 c0 -11 5 -27 10 -35 8 -12 10 -12 10 5 0 11 -5 27 -10 35
-8 12 -10 12 -10 -5z"/>
<path d="M2651 2644 c0 -11 3 -14 6 -6 3 7 2 16 -1 19 -3 4 -6 -2 -5 -13z"/>
<path d="M2770 2500 c6 -11 13 -20 16 -20 2 0 0 9 -6 20 -6 11 -13 20 -16 20
-2 0 0 -9 6 -20z"/>
<path d="M2931 2183 c-32 -95 -88 -190 -144 -247 -56 -56 -54 -70 2 -23 61 50
118 144 150 247 20 65 13 84 -8 23z"/>
<path d="M2782 2014 c-18 -25 -36 -42 -41 -39 -5 3 -12 1 -15 -3 -3 -5 4 -9
16 -8 21 1 88 80 77 91 -3 2 -20 -16 -37 -41z"/>
<path d="M2734 2019 c-3 -6 -2 -15 3 -20 5 -5 9 -1 9 11 0 23 -2 24 -12 9z"/>
<path d="M1494 2858 c-11 -18 23 -36 138 -73 118 -38 158 -43 158 -20 0 20
-36 37 -155 74 -108 34 -130 37 -141 19z"/>
<path d="M3331 2827 c-69 -23 -127 -47 -129 -54 -8 -27 49 -25 148 6 123 37
155 52 155 71 0 26 -46 20 -174 -23z m119 9 c-10 -13 -40 -12 -40 1 0 3 7 3
15 0 8 -4 17 -2 20 3 4 6 9 10 12 10 3 0 0 -6 -7 -14z m-152 -43 c-10 -2 -18
-9 -18 -15 0 -6 -3 -9 -6 -5 -10 10 6 27 24 26 15 -1 15 -2 0 -6z"/>
<path d="M1360 2521 c-84 -5 -105 -9 -105 -21 0 -12 25 -16 130 -23 167 -10
351 -5 367 11 9 9 9 15 0 25 -15 14 -216 18 -392 8z m237 -17 c-3 -3 -12 -4
-19 -1 -8 3 -5 6 6 6 11 1 17 -2 13 -5z m48 -4 c-3 -5 -13 -10 -21 -10 -8 0
-12 5 -9 10 3 6 13 10 21 10 8 0 12 -4 9 -10z m65 6 c0 -2 -7 -7 -16 -10 -8
-3 -12 -2 -9 4 6 10 25 14 25 6z"/>
<path d="M3280 2524 c-52 -10 -55 -13 -36 -32 15 -15 43 -17 252 -16 231 1
275 7 248 33 -10 10 -421 23 -464 15z m190 -24 c12 -8 12 -10 -5 -10 -11 0
-27 5 -35 10 -12 8 -12 10 5 10 11 0 27 -5 35 -10z"/>
<path d="M1628 2216 c-125 -40 -128 -41 -128 -67 0 -28 27 -24 170 24 86 29
125 47 125 57 0 26 -54 21 -167 -14z m-11 -42 c-3 -3 -12 -4 -19 -1 -8 3 -5 6
6 6 11 1 17 -2 13 -5z"/>
<path d="M3205 2240 c-9 -15 34 -37 135 -70 121 -38 156 -45 165 -30 13 22
-19 41 -129 75 -115 36 -160 42 -171 25z m222 -66 c-3 -3 -12 -4 -19 -1 -8 3
-5 6 6 6 11 1 17 -2 13 -5z"/>
<path d="M1803 1963 c-156 -105 -260 -180 -294 -210 -39 -35 -50 -63 -26 -63
14 0 289 183 353 235 71 59 44 89 -33 38z m27 -18 c-7 -8 -18 -15 -25 -15 -7
0 -18 -7 -25 -15 -7 -8 -17 -15 -22 -15 -14 0 13 24 47 42 39 21 40 21 25 3z
m-156 -104 c3 -5 -1 -11 -9 -14 -9 -4 -12 -1 -8 9 6 16 10 17 17 5z m-44 -31
c-8 -5 -19 -10 -25 -10 -5 0 -3 5 5 10 8 5 20 10 25 10 6 0 3 -5 -5 -10z m-45
-29 c3 -5 2 -12 -3 -15 -5 -3 -9 1 -9 9 0 17 3 19 12 6z"/>
<path d="M3120 1978 c0 -20 25 -41 180 -150 159 -112 216 -146 226 -135 18 18
-41 69 -267 230 -84 60 -139 82 -139 55z m121 -75 c13 -15 12 -15 -8 -4 -24
12 -29 21 -14 21 5 0 15 -7 22 -17z m89 -66 c0 -9 -56 28 -65 43 -3 6 10 0 29
-13 19 -12 35 -26 36 -30z m50 -28 c17 -13 18 -17 5 -10 -33 17 -51 31 -40 31
6 0 21 -10 35 -21z m44 -35 c3 -8 2 -12 -4 -9 -6 3 -10 10 -10 16 0 14 7 11
14 -7z"/>
<path d="M1980 1748 c-46 -50 -150 -199 -150 -214 0 -26 34 -14 67 24 49 55
131 175 135 196 5 32 -20 29 -52 -6z m14 -30 c-17 -29 -60 -78 -67 -78 -4 0 3
12 17 27 14 15 22 31 19 36 -3 6 -1 7 4 4 6 -4 13 0 17 8 3 8 8 15 11 15 4 0
3 -6 -1 -12z m-88 -120 c-8 -17 -21 -33 -31 -34 -9 -1 -15 0 -12 3 3 2 9 4 13
3 4 -1 13 12 20 29 7 17 15 31 18 31 3 0 -1 -14 -8 -32z"/>
<path d="M2965 1770 c-9 -14 60 -119 129 -195 44 -49 57 -58 67 -47 18 17 -5
59 -91 165 -65 80 -91 99 -105 77z m50 -29 c3 -5 2 -12 -3 -15 -5 -3 -9 1 -9
9 0 17 3 19 12 6z m25 -46 c14 -19 14 -19 -2 -6 -10 7 -18 18 -18 24 0 6 1 8
3 6 1 -2 9 -13 17 -24z m34 -41 c9 -24 7 -27 -9 -10 -17 17 -19 26 -6 26 5 0
12 -7 15 -16z m29 -38 c4 -10 1 -13 -8 -9 -8 3 -12 9 -9 14 7 12 11 11 17 -5z
m27 -51 c14 -19 14 -19 -2 -6 -10 7 -18 18 -18 24 0 6 1 8 3 6 1 -2 9 -13 17
-24z"/>
<path d="M2205 1618 c-18 -27 -85 -228 -85 -258 0 -22 22 -27 37 -7 12 16 58
139 76 202 21 77 6 110 -28 63z m-43 -190 c-8 -8 -9 -4 -5 13 4 13 8 18 11 10
2 -7 -1 -18 -6 -23z"/>
<path d="M2757 1623 c-11 -18 35 -170 76 -253 19 -37 47 -39 47 -3 -1 47 -83
257 -102 261 -9 2 -19 -1 -21 -5z m41 -68 c-3 -3 -9 2 -12 12 -6 14 -5 15 5 6
7 -7 10 -15 7 -18z m32 -90 c0 -5 -5 -3 -10 5 -5 8 -10 20 -10 25 0 6 5 3 10
-5 5 -8 10 -19 10 -25z"/>
<path d="M2483 1578 c-10 -16 -17 -407 -8 -455 4 -25 11 -33 23 -31 14 3 18
19 24 88 8 111 8 348 -1 379 -8 29 -26 38 -38 19z m14 -170 c-3 -8 -6 -5 -6 6
-1 11 2 17 5 13 3 -3 4 -12 1 -19z m0 -205 c-3 -10 -5 -4 -5 12 0 17 2 24 5
18 2 -7 2 -21 0 -30z"/>
<path d="M2411 1464 c0 -11 3 -14 6 -6 3 7 2 16 -1 19 -3 4 -6 -2 -5 -13z"/>
</g>
</svg>
